<?xml version="1.0" encoding="UTF-8" standalone="no"?>
<!-- Generated by IcoMoon.io -->

<svg
   xmlns:dc="http://purl.org/dc/elements/1.1/"
   xmlns:cc="http://creativecommons.org/ns#"
   xmlns:rdf="http://www.w3.org/1999/02/22-rdf-syntax-ns#"
   xmlns:svg="http://www.w3.org/2000/svg"
   xmlns="http://www.w3.org/2000/svg"
   xmlns:xlink="http://www.w3.org/1999/xlink"
   xmlns:sodipodi="http://sodipodi.sourceforge.net/DTD/sodipodi-0.dtd"
   xmlns:inkscape="http://www.inkscape.org/namespaces/inkscape"
   version="1.1"
   width="1024"
   height="1024"
   viewBox="0 0 1024 1024"
   id="svg166"
   sodipodi:docname="MediaClr32.svg"
   inkscape:version="0.92.4 (5da689c313, 2019-01-14)">
  <metadata
     id="metadata172">
    <rdf:RDF>
      <cc:Work
         rdf:about="">
        <dc:format>image/svg+xml</dc:format>
        <dc:type
           rdf:resource="http://purl.org/dc/dcmitype/StillImage" />
        <dc:title>cogs</dc:title>
      </cc:Work>
    </rdf:RDF>
  </metadata>
  <defs
     id="defs170">
    <linearGradient
       inkscape:collect="always"
       id="linearGradient212">
      <stop
         style="stop-color:#ff00ff;stop-opacity:1;"
         offset="0"
         id="stop208" />
      <stop
         style="stop-color:#ffd42a;stop-opacity:1"
         offset="1"
         id="stop210" />
    </linearGradient>
    <linearGradient
       inkscape:collect="always"
       id="linearGradient204">
      <stop
         style="stop-color:#ff00ff;stop-opacity:1"
         offset="0"
         id="stop200" />
      <stop
         style="stop-color:#ffcc00;stop-opacity:1"
         offset="1"
         id="stop202" />
    </linearGradient>
    <linearGradient
       inkscape:collect="always"
       id="linearGradient192">
      <stop
         style="stop-color:#0000ff;stop-opacity:1;"
         offset="0"
         id="stop188" />
      <stop
         style="stop-color:#00ffe0;stop-opacity:1"
         offset="1"
         id="stop190" />
    </linearGradient>
    <linearGradient
       inkscape:collect="always"
       xlink:href="#linearGradient192"
       id="linearGradient194"
       x1="-79.712578"
       y1="536.52692"
       x2="1134.3712"
       y2="291.25748"
       gradientUnits="userSpaceOnUse" />
    <linearGradient
       inkscape:collect="always"
       xlink:href="#linearGradient204"
       id="linearGradient206"
       x1="481.34131"
       y1="913.62872"
       x2="1140.5031"
       y2="521.19763"
       gradientUnits="userSpaceOnUse" />
    <linearGradient
       inkscape:collect="always"
       xlink:href="#linearGradient212"
       id="linearGradient214"
       x1="378.28146"
       y1="153.51129"
       x2="706.04718"
       y2="-32.496151"
       gradientUnits="userSpaceOnUse" />
  </defs>
  <sodipodi:namedview
     pagecolor="#ffffff"
     bordercolor="#666666"
     borderopacity="1"
     objecttolerance="10"
     gridtolerance="10"
     guidetolerance="10"
     inkscape:pageopacity="0"
     inkscape:pageshadow="2"
     inkscape:window-width="1600"
     inkscape:window-height="837"
     id="namedview168"
     showgrid="false"
     inkscape:zoom="0.11531917"
     inkscape:cx="-180.77982"
     inkscape:cy="315.66583"
     inkscape:window-x="-8"
     inkscape:window-y="-8"
     inkscape:window-maximized="1"
     inkscape:current-layer="svg166" />
  <title
     id="title161">cogs</title>
  <g
     id="icomoon-ignore" />
  <path
     fill="#000"
     d="M754.772 495.183c0 0 174.229 131.982 174.229 131.982s-130.449 396.835-130.449 396.835c0 0-244.284-151.428-244.284-151.428s200.504-377.389 200.504-377.389zM811.597 154.565c0 0 54.608 47.205 54.608 47.205s-372.499 633.26-372.499 633.26c0 0-110.705-68.625-110.705-68.625s428.596-611.84 428.596-611.84zM404.042 191.227c0 0 322.737 247.571 322.737 247.571s-233.073 396.232-233.073 396.232c0 0-493.706-306.042-493.706-306.042s404.042-337.761 404.042-337.761zM811.597 154.565c0 0 212.403 183.61 212.403 183.61s-77.92 237.037-77.92 237.037c0 0-277.981-215.799-277.981-215.799s143.498-204.849 143.498-204.849zM632.794 0c0 0 146.834 126.929 146.834 126.929s-138.069 178.567-138.069 178.567c0 0-192.966-151.512-192.966-151.512s184.202-153.985 184.202-153.985z"
     id="path164" />
  <path
     style="fill:url(#linearGradient194);stroke-width:8.67158508;fill-opacity:1"
     d="M 258.6181,684.23531 C 132.22975,605.52184 24.003735,538.36068 18.115848,534.9883 11.279684,531.07276 79.073331,468.81836 205.69197,362.73854 L 403.97334,196.6204 527.75038,291.46756 c 68.07737,52.16594 124.60403,94.84716 125.61482,94.84716 1.01079,0 35.81427,-48.77767 77.34108,-108.39481 41.5268,-59.61715 79.40273,-108.39482 84.16872,-108.39482 4.766,0 52.42983,38.21843 105.91972,84.92984 l 97.25428,84.92985 -32.33186,99.34133 c -17.78247,54.63775 -34.22692,106.45807 -36.54318,115.15629 -3.48971,13.10446 -21.38422,2.32949 -104.4093,-62.869 -55.10878,-43.27616 -101.83256,-78.68393 -103.83063,-78.68393 -1.99807,0 -54.58031,86.82425 -116.84942,192.94277 C 561.81551,711.39076 505.81614,804.77054 499.64158,812.78286 489.51426,825.9244 465.9162,813.3386 258.6181,684.23531 Z"
     id="path186"
     inkscape:connector-curvature="0" />
  <path
     style="fill:url(#linearGradient214);stroke-width:4.33579254;fill-opacity:1"
     d="M 595.56597,267.05295 C 572.71577,248.75003 531.1425,215.86361 503.18092,193.97202 L 452.3417,154.16913 541.06695,79.671608 c 48.7989,-40.973638 89.63702,-74.7666623 90.7514,-75.0956102 1.11438,-0.3289479 33.56888,26.5712302 72.12111,59.7781752 44.94939,38.717127 69.2678,62.531817 67.78919,66.385017 -3.37236,8.78822 -128.78842,170.29885 -131.94311,169.91615 -1.47055,-0.17842 -21.36936,-15.29948 -44.21957,-33.60239 z"
     id="path196"
     inkscape:connector-curvature="0" />
  <path
     style="fill:url(#linearGradient206);stroke-width:4.33579254;fill-opacity:1"
     d="M 678.27577,946.73069 C 612.71124,906.01255 559.69129,870.47515 560.45366,867.75867 561.81821,862.89651 751.6779,504.26539 754.70608,500.83 c 1.96375,-2.22783 170.77444,125.57534 170.62741,129.17858 -0.0597,1.46258 -28.85023,89.9808 -63.979,196.70715 l -63.87048,194.04797 z"
     id="path198"
     inkscape:connector-curvature="0" />
</svg>
